{
  "accessors": [
    {
      "bufferView": 0,
      "componentType": 5125,
      "count": 26004,
      "type": "SCALAR"
    },
    {
      "bufferView": 1,
      "componentType": 5126,
      "count": 7144,
      "max": [
        0.999999821186066,
        0.480142593383789,
        0.800237655639648
      ],
      "min": [
        -0.999999940395355,
        -0.480142593383789,
        -0.800237655639648
      ],
      "type": "VEC3"
    },
    {
      "bufferView": 2,
      "componentType": 5126,
      "count": 7144,
      "type": "VEC3"
    },
    {
      "bufferView": 3,
      "componentType": 5126,
      "count": 7144,
      "type": "VEC2"
    }
  ],
  "asset": {
    "generator": "Substance Painter 2019.2.3",
    "version": "2.0"
  },
  "bufferViews": [
    {
      "buffer": 0,
      "byteLength": 104016,
      "target": 34963
    },
    {
      "buffer": 0,
      "byteLength": 85728,
      "byteOffset": 104016,
      "target": 34962
    },
    {
      "buffer": 0,
      "byteLength": 85728,
      "byteOffset": 189744,
      "target": 34962
    },
    {
      "buffer": 0,
      "byteLength": 57152,
      "byteOffset": 275472,
      "target": 34962
    }
  ],
  "buffers": [
    {
      "byteLength": 332624,
      "uri": "685791.bin"
    }
  ],
  "images": [
    {
      "uri": "685791_baseColor.png"
    },
    {
      "uri": "685791_occlusionRoughnessMetallic.png"
    },
    {
      "uri": "685791_normal.png"
    }
  ],
  "materials": [
    {
      "alphaMode": "OPAQUE",
      "name": "685791",
      "normalTexture": {
        "index": 2
      },
      "occlusionTexture": {
        "index": 1
      },
      "pbrMetallicRoughness": {
        "baseColorTexture": {
          "index": 0
        },
        "metallicRoughnessTexture": {
          "index": 1
        }
      }
    }
  ],
  "meshes": [
    {
      "name": "pCylinder10",
      "primitives": [
        {
          "attributes": {
            "NORMAL": 2,
            "POSITION": 1,
            "TEXCOORD_0": 3
          },
          "indices": 0,
          "material": 0,
          "mode": 4
        }
      ]
    }
  ],
  "nodes": [
    {
      "children": [
        1
      ],
      "name": "root",
      "scale": [
        0.74977719783783,
        0.74977719783783,
        0.74977719783783
      ],
      "translation": [
        5.42402267456055e-06,
        0.359999984502792,
        0.0
      ]
    },
    {
      "children": [
        2
      ],
      "name": "pCylinder10"
    },
    {
      "mesh": 0,
      "name": "pCylinder10"
    }
  ],
  "samplers": [
    {
      "magFilter": 9729,
      "minFilter": 9985,
      "wrapS": 10497,
      "wrapT": 10497
    }
  ],
  "scene": 0,
  "scenes": [
    {
      "name": "Scene",
      "nodes": [
        0
      ]
    }
  ],
  "textures": [
    {
      "sampler": 0,
      "source": 0
    },
    {
      "sampler": 0,
      "source": 1
    },
    {
      "sampler": 0,
      "source": 2
    }
  ]
}